<svg width="24" height="24" viewBox="0 0 24 24" fill="none" xmlns="http://www.w3.org/2000/svg">
<rect width="24" height="24" fill="black"/>
<path d="M12.1929 4.00067H12.2549C13.7489 4.00067 15.1469 4.40915 16.3443 5.12015L16.3077 5.0995C17.5545 5.8285 18.564 6.83803 19.2723 8.04615L19.293 8.08479C19.986 9.26359 20.3952 10.6809 20.3952 12.1936C20.3952 15.7959 18.0742 18.8572 14.8464 19.962L14.7884 19.9793C14.7464 19.9927 14.6984 20 14.6491 20C14.5412 20 14.4412 19.964 14.3606 19.904L14.3619 19.9047C14.2766 19.8281 14.2233 19.7175 14.2233 19.5942C14.2233 19.5909 14.2233 19.5875 14.2233 19.5849V19.5855C14.2233 19.5642 14.2251 19.2919 14.2286 18.7686C14.2322 18.2452 14.234 17.7668 14.234 17.3332C14.2386 17.2832 14.2413 17.2259 14.2413 17.1673C14.2413 16.6395 14.0261 16.1624 13.6789 15.8179C14.0907 15.7773 14.4625 15.7093 14.8237 15.6147L14.7731 15.626C15.1549 15.5194 15.4881 15.3775 15.7973 15.1982L15.7766 15.2095C16.1151 15.0229 16.4016 14.7857 16.6375 14.5045L16.6415 14.4999C16.8894 14.1827 17.0833 13.8095 17.2013 13.4037L17.2073 13.3804C17.3465 12.9252 17.4265 12.4021 17.4265 11.8604C17.4265 11.8304 17.4265 11.7998 17.4258 11.7698V11.7744C17.4258 11.7598 17.4265 11.7431 17.4265 11.7265C17.4265 10.8948 17.1053 10.1385 16.5809 9.57411L16.5829 9.57611C16.6948 9.28291 16.7595 8.9444 16.7595 8.59056C16.7595 8.15809 16.6629 7.74895 16.4903 7.38178L16.4976 7.39911C16.421 7.38445 16.3337 7.37579 16.2437 7.37579C16.0212 7.37579 15.8113 7.42776 15.6247 7.51972L15.6327 7.51639C15.2542 7.65632 14.9303 7.81492 14.6251 8.00017L14.6505 7.98551L14.2446 8.24139C13.6303 8.06547 12.9246 7.96418 12.1956 7.96418C11.4666 7.96418 10.7609 8.06547 10.0919 8.25472L10.1459 8.24139C10.0321 8.1632 9.88086 8.06703 9.69206 7.95286C9.44351 7.81025 9.14964 7.67232 8.84445 7.55637L8.80047 7.54171C8.60522 7.43909 8.374 7.37912 8.12811 7.37912C8.04548 7.37912 7.96418 7.38578 7.88555 7.39911L7.89422 7.39778C7.72896 7.74695 7.63234 8.15676 7.63234 8.58923C7.63234 8.94307 7.69697 9.28225 7.81558 9.59477L7.80892 9.57545C7.28583 10.1379 6.96531 10.8942 6.96531 11.7258C6.96531 11.7425 6.96531 11.7598 6.96597 11.7764V11.7738C6.96531 11.7998 6.96531 11.8297 6.96531 11.8604C6.96531 12.3995 7.04527 12.9206 7.19454 13.411L7.18454 13.373C7.31048 13.8015 7.50173 14.174 7.75095 14.5012L7.74495 14.4925C7.98084 14.7824 8.26604 15.0209 8.58923 15.2002L8.60389 15.2075C8.89176 15.3755 9.22561 15.5174 9.57678 15.6167L9.60743 15.624C9.91795 15.7073 10.2898 15.7753 10.6703 15.8133L10.7009 15.8159C10.4137 16.1011 10.2225 16.4823 10.1785 16.9074L10.1778 16.9154C10.0399 16.9827 9.87931 17.0374 9.71205 17.0727L9.69806 17.0753C9.52747 17.1093 9.33222 17.1286 9.13165 17.1286C9.11699 17.1286 9.10233 17.1286 9.08767 17.1286H9.08967C8.82712 17.1233 8.5859 17.038 8.38666 16.8968L8.39065 16.8994C8.14343 16.7268 7.94353 16.5029 7.80359 16.2424L7.79893 16.2324C7.66699 16.0085 7.49307 15.8232 7.28716 15.6813L7.28116 15.6773C7.13123 15.5647 6.95465 15.4767 6.76407 15.4241L6.7534 15.4214L6.54017 15.3894C6.52484 15.3881 6.50685 15.3874 6.48886 15.3874C6.39557 15.3874 6.30694 15.4061 6.22631 15.4388L6.23098 15.4368C6.17411 15.4687 6.15635 15.5096 6.17767 15.5594C6.20366 15.6167 6.23564 15.666 6.27429 15.7093L6.27362 15.7086C6.31427 15.7566 6.36025 15.7986 6.41023 15.8352L6.41223 15.8366L6.48686 15.8899C6.67544 15.9885 6.8307 16.1258 6.94865 16.2917L6.95131 16.2957C7.07859 16.4536 7.19054 16.6322 7.2805 16.8235L7.28716 16.8394L7.39378 17.0847C7.48374 17.3525 7.647 17.5764 7.86023 17.7384L7.86356 17.741C8.06347 17.897 8.30469 18.0089 8.56791 18.0596L8.57857 18.0609C8.79847 18.1035 9.05435 18.1302 9.31556 18.1355H9.32023C9.35021 18.1369 9.38487 18.1369 9.42018 18.1369C9.5941 18.1369 9.76469 18.1229 9.93128 18.0955L9.91329 18.0982L10.1585 18.0556C10.1585 18.3261 10.1603 18.6411 10.1638 19.0005C10.1674 19.3598 10.1692 19.5538 10.1692 19.5822V19.5915C10.1692 19.7148 10.1159 19.8254 10.0306 19.902C9.95127 19.9614 9.85132 19.9973 9.7427 19.9973C9.69272 19.9973 9.64475 19.99 9.6001 19.976L9.60343 19.9767C6.31894 18.8512 4 15.7899 4 12.1869C4 10.6756 4.40781 9.25959 5.12015 8.04281L5.09883 8.08146C5.82783 6.8347 6.83737 5.82516 8.04548 5.11682L8.08413 5.09616C9.24293 4.40715 10.6396 4 12.1309 4H12.1962H12.1929V4.00067ZM7.10191 15.7726C7.12324 15.7228 7.09836 15.6802 7.02728 15.6447C6.9562 15.6233 6.91 15.6304 6.88868 15.666C6.86735 15.7157 6.89223 15.7584 6.96331 15.7939C7.02728 15.8366 7.07348 15.8295 7.10191 15.7726ZM7.43309 16.1358C7.48285 16.1002 7.47574 16.0434 7.41177 15.9652C7.34069 15.9012 7.28383 15.8905 7.24118 15.9332C7.19143 15.9687 7.19853 16.0256 7.2625 16.1038C7.33314 16.1735 7.39 16.184 7.43309 16.1351V16.1358ZM7.75295 16.6156C7.81692 16.5658 7.81692 16.4983 7.75295 16.413C7.69608 16.3206 7.63567 16.2993 7.5717 16.349C7.50773 16.3845 7.50773 16.4485 7.5717 16.5409C7.63567 16.6333 7.69608 16.6582 7.75295 16.6156ZM8.20074 17.064C8.2576 17.0071 8.24339 16.9396 8.15809 16.8614C8.0728 16.7761 8.00172 16.7655 7.94486 16.8295C7.88089 16.8863 7.8951 16.9538 7.98751 17.032C8.0728 17.1173 8.14388 17.1271 8.20074 17.0613V17.064ZM8.80913 17.3306C8.83045 17.2524 8.78425 17.1955 8.67053 17.16C8.56391 17.1315 8.49638 17.1564 8.46795 17.2346C8.43952 17.3128 8.48572 17.3661 8.60656 17.3945C8.71317 17.4376 8.7807 17.4163 8.80913 17.3306ZM9.48149 17.3839C9.48149 17.2915 9.42107 17.2524 9.30024 17.2666C9.18651 17.2666 9.12965 17.3057 9.12965 17.3839C9.12965 17.4763 9.19007 17.5154 9.3109 17.5011C9.42462 17.5016 9.48149 17.4621 9.48149 17.3839ZM10.1005 17.2772C10.0863 17.1991 10.0224 17.1671 9.90863 17.1813C9.7949 17.2026 9.74515 17.2559 9.75936 17.3412C9.77358 17.4265 9.83755 17.4549 9.95127 17.4265C10.065 17.3981 10.1143 17.3483 10.1005 17.2772Z" fill="white"/>
</svg>
