<svg width="24" height="24" viewBox="0 0 24 24" fill="none" xmlns="http://www.w3.org/2000/svg">
<rect width="24" height="24" fill="white"/>
<path d="M7.94137 13.8469C7.94137 14.6564 7.28013 15.3176 6.47068 15.3176C5.66124 15.3176 5 14.6564 5 13.8469C5 13.0375 5.66124 12.3762 6.47068 12.3762H7.94137V13.8469Z" fill="#E01E5A"/>
<path d="M8.68237 13.8469C8.68237 13.0374 9.34361 12.3762 10.1531 12.3762C10.9625 12.3762 11.6237 13.0374 11.6237 13.8469V17.5293C11.6237 18.3387 10.9625 19 10.1531 19C9.34361 19 8.68237 18.3387 8.68237 17.5293V13.8469Z" fill="#E01E5A"/>
<path d="M10.1531 7.94137C9.34361 7.94137 8.68237 7.28013 8.68237 6.47068C8.68237 5.66124 9.34361 5 10.1531 5C10.9625 5 11.6237 5.66124 11.6237 6.47068V7.94137H10.1531Z" fill="#36C5F0"/>
<path d="M10.1531 8.6824C10.9625 8.6824 11.6238 9.34364 11.6238 10.1531C11.6238 10.9625 10.9625 11.6238 10.1531 11.6238H6.47068C5.66124 11.6238 5 10.9625 5 10.1531C5 9.34364 5.66124 8.6824 6.47068 8.6824H10.1531Z" fill="#36C5F0"/>
<path d="M16.0586 10.1531C16.0586 9.34364 16.7198 8.6824 17.5293 8.6824C18.3387 8.6824 19 9.34364 19 10.1531C19 10.9625 18.3387 11.6238 17.5293 11.6238H16.0586V10.1531Z" fill="#2EB67D"/>
<path d="M15.3176 10.1531C15.3176 10.9625 14.6564 11.6238 13.8469 11.6238C13.0375 11.6238 12.3762 10.9625 12.3762 10.1531V6.47068C12.3762 5.66124 13.0375 5 13.8469 5C14.6564 5 15.3176 5.66124 15.3176 6.47068V10.1531Z" fill="#2EB67D"/>
<path d="M13.8469 16.0586C14.6564 16.0586 15.3176 16.7198 15.3176 17.5293C15.3176 18.3387 14.6564 19 13.8469 19C13.0375 19 12.3762 18.3387 12.3762 17.5293V16.0586H13.8469Z" fill="#ECB22E"/>
<path d="M13.8469 15.3176C13.0375 15.3176 12.3762 14.6564 12.3762 13.8469C12.3762 13.0375 13.0375 12.3762 13.8469 12.3762H17.5293C18.3388 12.3762 19 13.0375 19 13.8469C19 14.6564 18.3388 15.3176 17.5293 15.3176H13.8469Z" fill="#ECB22E"/>
</svg>
