<?xml version="1.0" encoding="UTF-8"?>
<svg xmlns="http://www.w3.org/2000/svg" style="display:none">
  <symbol id="refresh" viewBox="0 0 24 24">
<path fill-rule="evenodd" clip-rule="evenodd" d="M2.93077 11.2003C3.00244 6.23968 7.07619 2.25 12.0789 2.25C15.3873 2.25 18.287 3.99427 19.8934 6.60721C20.1103 6.96007 20.0001 7.42199 19.6473 7.63892C19.2944 7.85585 18.8325 7.74565 18.6156 7.39279C17.2727 5.20845 14.8484 3.75 12.0789 3.75C7.8945 3.75 4.50372 7.0777 4.431 11.1982L4.83138 10.8009C5.12542 10.5092 5.60029 10.511 5.89203 10.8051C6.18377 11.0991 6.18191 11.574 5.88787 11.8657L4.20805 13.5324C3.91565 13.8225 3.44398 13.8225 3.15157 13.5324L1.47176 11.8657C1.17772 11.574 1.17585 11.0991 1.46759 10.8051C1.75933 10.5111 2.2342 10.5092 2.52824 10.8009L2.93077 11.2003ZM19.7864 10.4666C20.0786 10.1778 20.5487 10.1778 20.8409 10.4666L22.5271 12.1333C22.8217 12.4244 22.8245 12.8993 22.5333 13.1939C22.2421 13.4885 21.7673 13.4913 21.4727 13.2001L21.0628 12.7949C20.9934 17.7604 16.9017 21.75 11.8825 21.75C8.56379 21.75 5.65381 20.007 4.0412 17.3939C3.82366 17.0414 3.93307 16.5793 4.28557 16.3618C4.63806 16.1442 5.10016 16.2536 5.31769 16.6061C6.6656 18.7903 9.09999 20.25 11.8825 20.25C16.0887 20.25 19.4922 16.9171 19.5625 12.7969L19.1546 13.2001C18.86 13.4913 18.3852 13.4885 18.094 13.1939C17.8028 12.8993 17.8056 12.4244 18.1002 12.1333L19.7864 10.4666Z" /></symbol>
  <symbol id="activity" viewBox="0 0 24 24">
<path d="M17.75 15C17.75 15.4142 17.4142 15.75 17 15.75H12C11.5858 15.75 11.25 15.4142 11.25 15C11.25 14.5858 11.5858 14.25 12 14.25H17C17.4142 14.25 17.75 14.5858 17.75 15Z" />
<path d="M7.48014 9.42383C7.16193 9.15866 6.68901 9.20165 6.42383 9.51986C6.15866 9.83807 6.20165 10.311 6.51986 10.5762L6.75427 10.7715C7.41283 11.3203 7.84346 11.6815 8.11966 11.9874C8.38194 12.2778 8.40693 12.414 8.40693 12.5C8.40693 12.586 8.38194 12.7222 8.11966 13.0126C7.84346 13.3185 7.41283 13.6797 6.75427 14.2285L6.51986 14.4238C6.20165 14.689 6.15866 15.1619 6.42383 15.4801C6.68901 15.7983 7.16193 15.8413 7.48014 15.5762L7.75656 15.3458C8.36151 14.8417 8.87651 14.4126 9.23293 14.0179C9.61149 13.5987 9.90693 13.1166 9.90693 12.5C9.90693 11.8834 9.61149 11.4013 9.23293 10.9821C8.87651 10.5874 8.36151 10.1583 7.75656 9.65418L7.48014 9.42383Z" />
<path fill-rule="evenodd" clip-rule="evenodd" d="M11.9426 1.25H12.0574C14.3658 1.24999 16.1748 1.24998 17.5863 1.43975C19.031 1.63399 20.1711 2.03933 21.0659 2.93414C21.9607 3.82895 22.366 4.96897 22.5603 6.41371C22.75 7.82519 22.75 9.63423 22.75 11.9426V12.0574C22.75 14.3658 22.75 16.1748 22.5603 17.5863C22.366 19.031 21.9607 20.1711 21.0659 21.0659C20.1711 21.9607 19.031 22.366 17.5863 22.5603C16.1748 22.75 14.3658 22.75 12.0574 22.75H11.9426C9.63423 22.75 7.82519 22.75 6.41371 22.5603C4.96897 22.366 3.82895 21.9607 2.93414 21.0659C2.03933 20.1711 1.63399 19.031 1.43975 17.5863C1.24998 16.1748 1.24999 14.3658 1.25 12.0574V11.9426C1.24999 9.63423 1.24998 7.82519 1.43975 6.41371C1.63399 4.96897 2.03933 3.82895 2.93414 2.93414C3.82895 2.03933 4.96897 1.63399 6.41371 1.43975C7.82519 1.24998 9.63423 1.24999 11.9426 1.25ZM6.61358 2.92637C5.33517 3.09825 4.56445 3.42514 3.9948 3.9948C3.42514 4.56445 3.09825 5.33517 2.92637 6.61358C2.75159 7.91356 2.75 9.62178 2.75 12C2.75 14.3782 2.75159 16.0864 2.92637 17.3864C3.09825 18.6648 3.42514 19.4355 3.9948 20.0052C4.56445 20.5749 5.33517 20.9018 6.61358 21.0736C7.91356 21.2484 9.62178 21.25 12 21.25C14.3782 21.25 16.0864 21.2484 17.3864 21.0736C18.6648 20.9018 19.4355 20.5749 20.0052 20.0052C20.5749 19.4355 20.9018 18.6648 21.0736 17.3864C21.2484 16.0864 21.25 14.3782 21.25 12C21.25 9.62178 21.2484 7.91356 21.0736 6.61358C20.9018 5.33517 20.5749 4.56445 20.0052 3.9948C19.4355 3.42514 18.6648 3.09825 17.3864 2.92637C16.0864 2.75159 14.3782 2.75 12 2.75C9.62178 2.75 7.91356 2.75159 6.61358 2.92637Z" /></symbol>
  <symbol id="add-(filled)" viewBox="0 0 24 24">
<path d="M12.75 9C12.75 8.58579 12.4142 8.25 12 8.25C11.5858 8.25 11.25 8.58579 11.25 9L11.25 11.25H9C8.58579 11.25 8.25 11.5858 8.25 12C8.25 12.4142 8.58579 12.75 9 12.75H11.25V15C11.25 15.4142 11.5858 15.75 12 15.75C12.4142 15.75 12.75 15.4142 12.75 15L12.75 12.75H15C15.4142 12.75 15.75 12.4142 15.75 12C15.75 11.5858 15.4142 11.25 15 11.25H12.75V9Z" />
<path fill-rule="evenodd" clip-rule="evenodd" d="M12 1.25C6.06294 1.25 1.25 6.06294 1.25 12C1.25 17.9371 6.06294 22.75 12 22.75C17.9371 22.75 22.75 17.9371 22.75 12C22.75 6.06294 17.9371 1.25 12 1.25ZM2.75 12C2.75 6.89137 6.89137 2.75 12 2.75C17.1086 2.75 21.25 6.89137 21.25 12C21.25 17.1086 17.1086 21.25 12 21.25C6.89137 21.25 2.75 17.1086 2.75 12Z" /></symbol>
  <symbol id="add" viewBox="0 0 24 24">
<path d="M18 12.75H6C5.59 12.75 5.25 12.41 5.25 12C5.25 11.59 5.59 11.25 6 11.25H18C18.41 11.25 18.75 11.59 18.75 12C18.75 12.41 18.41 12.75 18 12.75Z" />
<path d="M12 18.75C11.59 18.75 11.25 18.41 11.25 18V6C11.25 5.59 11.59 5.25 12 5.25C12.41 5.25 12.75 5.59 12.75 6V18C12.75 18.41 12.41 18.75 12 18.75Z" /></symbol>
  <symbol id="app-placeholder" viewBox="0 0 24 24">
<rect width="24" height="24" rx="5" />
<path fill-rule="evenodd" clip-rule="evenodd" d="M4.25 8.67499C2.53832 8.32753 1.25 6.81422 1.25 5C1.25 2.92893 2.92893 1.25 5 1.25C6.81422 1.25 8.32753 2.53832 8.67499 4.25H15.325C15.6725 2.53832 17.1858 1.25 19 1.25C21.0711 1.25 22.75 2.92893 22.75 5C22.75 6.81422 21.4617 8.32753 19.75 8.67499V15.325C21.4617 15.6725 22.75 17.1858 22.75 19C22.75 21.0711 21.0711 22.75 19 22.75C17.1858 22.75 15.6725 21.4617 15.325 19.75H8.67499C8.32753 21.4617 6.81422 22.75 5 22.75C2.92893 22.75 1.25 21.0711 1.25 19C1.25 17.1858 2.53832 15.6725 4.25 15.325L4.25 8.67499ZM2.75 5C2.75 3.75736 3.75736 2.75 5 2.75C6.24264 2.75 7.25 3.75736 7.25 5C7.25 6.24264 6.24264 7.25 5 7.25C3.75736 7.25 2.75 6.24264 2.75 5ZM5.75 15.325L5.75 8.67499C7.21935 8.37673 8.37672 7.21935 8.67499 5.75H15.325C15.6233 7.21935 16.7807 8.37673 18.25 8.67499V15.325C16.7807 15.6233 15.6233 16.7807 15.325 18.25H8.67499C8.37672 16.7807 7.21935 15.6233 5.75 15.325ZM5 16.75C3.75736 16.75 2.75 17.7574 2.75 19C2.75 20.2426 3.75736 21.25 5 21.25C6.24264 21.25 7.25 20.2426 7.25 19C7.25 17.7574 6.24264 16.75 5 16.75ZM21.25 5C21.25 6.24264 20.2426 7.25 19 7.25C17.7574 7.25 16.75 6.24264 16.75 5C16.75 3.75736 17.7574 2.75 19 2.75C20.2426 2.75 21.25 3.75736 21.25 5ZM16.75 19C16.75 17.7574 17.7574 16.75 19 16.75C20.2426 16.75 21.25 17.7574 21.25 19C21.25 20.2426 20.2426 21.25 19 21.25C17.7574 21.25 16.75 20.2426 16.75 19Z" /></symbol>
  <symbol id="clear" viewBox="0 0 24 24">
<path d="M10.0303 8.96965C9.73741 8.67676 9.26253 8.67676 8.96964 8.96965C8.67675 9.26255 8.67675 9.73742 8.96964 10.0303L10.9393 12L8.96966 13.9697C8.67677 14.2625 8.67677 14.7374 8.96966 15.0303C9.26255 15.3232 9.73743 15.3232 10.0303 15.0303L12 13.0607L13.9696 15.0303C14.2625 15.3232 14.7374 15.3232 15.0303 15.0303C15.3232 14.7374 15.3232 14.2625 15.0303 13.9696L13.0606 12L15.0303 10.0303C15.3232 9.73744 15.3232 9.26257 15.0303 8.96968C14.7374 8.67678 14.2625 8.67678 13.9696 8.96968L12 10.9393L10.0303 8.96965Z" />
<path fill-rule="evenodd" clip-rule="evenodd" d="M12 1.25C6.06294 1.25 1.25 6.06294 1.25 12C1.25 17.9371 6.06294 22.75 12 22.75C17.9371 22.75 22.75 17.9371 22.75 12C22.75 6.06294 17.9371 1.25 12 1.25ZM2.75 12C2.75 6.89137 6.89137 2.75 12 2.75C17.1086 2.75 21.25 6.89137 21.25 12C21.25 17.1086 17.1086 21.25 12 21.25C6.89137 21.25 2.75 17.1086 2.75 12Z" /></symbol>
  <symbol id="close" viewBox="0 0 24 24">
<path d="M15.7122 16.773L7.22692 8.28769C6.937 7.99777 6.937 7.51694 7.22692 7.22703C7.51683 6.93711 7.99766 6.93711 8.28758 7.22703L16.7729 15.7123C17.0628 16.0022 17.0628 16.4831 16.7729 16.773C16.4829 17.0629 16.0021 17.0629 15.7122 16.773Z" />
<path d="M7.22709 16.7731C6.93717 16.4832 6.93717 16.0023 7.22709 15.7124L15.7124 7.22712C16.0023 6.93721 16.4831 6.93721 16.773 7.22712C17.0629 7.51704 17.0629 7.99787 16.773 8.28778L8.28775 16.7731C7.99783 17.063 7.517 17.063 7.22709 16.7731Z" /></symbol>
  <symbol id="comment---chat" viewBox="0 0 24 24">
<rect width="24" height="24" />
<path fill-rule="evenodd" clip-rule="evenodd" d="M22.75 12C22.75 6.06294 17.9371 1.25 12 1.25C6.06294 1.25 1.25 6.06294 1.25 12C1.25 13.7183 1.65371 15.3445 2.37213 16.7869C2.47933 17.0021 2.50208 17.2219 2.4526 17.4068L1.857 19.6328C1.44927 21.1566 2.84337 22.5507 4.3672 22.143L6.59324 21.5474C6.77814 21.4979 6.99791 21.5207 7.21315 21.6279C8.65553 22.3463 10.2817 22.75 12 22.75C17.9371 22.75 22.75 17.9371 22.75 12ZM12 2.75C17.1086 2.75 21.25 6.89137 21.25 12C21.25 17.1086 17.1086 21.25 12 21.25C10.5189 21.25 9.12121 20.9025 7.88191 20.2852C7.38451 20.0375 6.78973 19.9421 6.20553 20.0984L3.97949 20.694C3.57066 20.8034 3.19663 20.4293 3.30602 20.0205L3.90163 17.7945C4.05794 17.2103 3.96254 16.6155 3.7148 16.1181C3.09752 14.8788 2.75 13.4811 2.75 12C2.75 6.89137 6.89137 2.75 12 2.75Z" /></symbol>
  <symbol id="connections" viewBox="0 0 24 24">
<path d="M14.0184 7.36452C14.1256 6.96443 13.8882 6.55317 13.4881 6.44597C13.088 6.33876 12.6767 6.5762 12.5695 6.9763L9.98131 16.6356C9.8741 17.0357 10.1115 17.4469 10.5116 17.5541C10.9117 17.6613 11.323 17.4239 11.4302 17.0238L14.0184 7.36452Z" />
<path fill-rule="evenodd" clip-rule="evenodd" d="M11.9426 1.25C9.63423 1.24999 7.82519 1.24998 6.41371 1.43975C4.96897 1.63399 3.82895 2.03933 2.93414 2.93414C2.03933 3.82895 1.63399 4.96897 1.43975 6.41371C1.24998 7.82519 1.24999 9.63423 1.25 11.9426V12.0574C1.24999 14.3658 1.24998 16.1748 1.43975 17.5863C1.63399 19.031 2.03933 20.1711 2.93414 21.0659C3.82895 21.9607 4.96897 22.366 6.41371 22.5603C7.82519 22.75 9.63423 22.75 11.9426 22.75H12.0574C14.3658 22.75 16.1748 22.75 17.5863 22.5603C19.031 22.366 20.1711 21.9607 21.0659 21.0659C21.9607 20.1711 22.366 19.031 22.5603 17.5863C22.75 16.1748 22.75 14.3658 22.75 12.0574V11.9426C22.75 9.63423 22.75 7.82519 22.5603 6.41371C22.366 4.96897 21.9607 3.82895 21.0659 2.93414C20.1711 2.03933 19.031 1.63399 17.5863 1.43975C16.1748 1.24998 14.3658 1.24999 12.0574 1.25H11.9426ZM3.9948 3.9948C4.56445 3.42514 5.33517 3.09825 6.61358 2.92637C7.91356 2.75159 9.62178 2.75 12 2.75C14.3782 2.75 16.0864 2.75159 17.3864 2.92637C18.6648 3.09825 19.4355 3.42514 20.0052 3.9948C20.5749 4.56445 20.9018 5.33517 21.0736 6.61358C21.2484 7.91356 21.25 9.62178 21.25 12C21.25 14.3782 21.2484 16.0864 21.0736 17.3864C20.9018 18.6648 20.5749 19.4355 20.0052 20.0052C19.4355 20.5749 18.6648 20.9018 17.3864 21.0736C16.0864 21.2484 14.3782 21.25 12 21.25C9.62178 21.25 7.91356 21.2484 6.61358 21.0736C5.33517 20.9018 4.56445 20.5749 3.9948 20.0052C3.42514 19.4355 3.09825 18.6648 2.92637 17.3864C2.75159 16.0864 2.75 14.3782 2.75 12C2.75 9.62178 2.75159 7.91356 2.92637 6.61358C3.09825 5.33517 3.42514 4.56445 3.9948 3.9948Z" /></symbol>
  <symbol id="copy" viewBox="0 0 24 24">
<rect width="24" height="24" />
<path fill-rule="evenodd" clip-rule="evenodd" d="M15 1.25H10.9436C9.10583 1.24998 7.65019 1.24997 6.51098 1.40314C5.33856 1.56076 4.38961 1.89288 3.64124 2.64124C2.89288 3.38961 2.56076 4.33856 2.40314 5.51098C2.24997 6.65019 2.24998 8.10582 2.25 9.94357V16C2.25 17.8722 3.62205 19.424 5.41551 19.7047C5.55348 20.4687 5.81753 21.1208 6.34835 21.6517C6.95027 22.2536 7.70814 22.5125 8.60825 22.6335C9.47522 22.75 10.5775 22.75 11.9451 22.75H15.0549C16.4225 22.75 17.5248 22.75 18.3918 22.6335C19.2919 22.5125 20.0497 22.2536 20.6517 21.6517C21.2536 21.0497 21.5125 20.2919 21.6335 19.3918C21.75 18.5248 21.75 17.4225 21.75 16.0549V10.9451C21.75 9.57754 21.75 8.47522 21.6335 7.60825C21.5125 6.70814 21.2536 5.95027 20.6517 5.34835C20.1208 4.81753 19.4687 4.55348 18.7047 4.41551C18.424 2.62205 16.8722 1.25 15 1.25ZM17.1293 4.27117C16.8265 3.38623 15.9876 2.75 15 2.75H11C9.09318 2.75 7.73851 2.75159 6.71085 2.88976C5.70476 3.02502 5.12511 3.27869 4.7019 3.7019C4.27869 4.12511 4.02502 4.70476 3.88976 5.71085C3.75159 6.73851 3.75 8.09318 3.75 10V16C3.75 16.9876 4.38624 17.8265 5.27117 18.1293C5.24998 17.5194 5.24999 16.8297 5.25 16.0549V10.9451C5.24998 9.57754 5.24996 8.47522 5.36652 7.60825C5.48754 6.70814 5.74643 5.95027 6.34835 5.34835C6.95027 4.74643 7.70814 4.48754 8.60825 4.36652C9.47522 4.24996 10.5775 4.24998 11.9451 4.25H15.0549C15.8297 4.24999 16.5194 4.24998 17.1293 4.27117ZM7.40901 6.40901C7.68577 6.13225 8.07435 5.9518 8.80812 5.85315C9.56347 5.75159 10.5646 5.75 12 5.75H15C16.4354 5.75 17.4365 5.75159 18.1919 5.85315C18.9257 5.9518 19.3142 6.13225 19.591 6.40901C19.8678 6.68577 20.0482 7.07435 20.1469 7.80812C20.2484 8.56347 20.25 9.56458 20.25 11V16C20.25 17.4354 20.2484 18.4365 20.1469 19.1919C20.0482 19.9257 19.8678 20.3142 19.591 20.591C19.3142 20.8678 18.9257 21.0482 18.1919 21.1469C17.4365 21.2484 16.4354 21.25 15 21.25H12C10.5646 21.25 9.56347 21.2484 8.80812 21.1469C8.07435 21.0482 7.68577 20.8678 7.40901 20.591C7.13225 20.3142 6.9518 19.9257 6.85315 19.1919C6.75159 18.4365 6.75 17.4354 6.75 16V11C6.75 9.56458 6.75159 8.56347 6.85315 7.80812C6.9518 7.07435 7.13225 6.68577 7.40901 6.40901Z" /></symbol>
  <symbol id="delete---revoke" viewBox="0 0 24 24">
<rect width="24" height="24" />
<path d="M11.9999 2.75C11.0214 2.75 10.187 3.37503 9.87778 4.24993C9.73974 4.64047 9.31125 4.84517 8.92071 4.70713C8.53017 4.56909 8.32548 4.1406 8.46352 3.75007C8.97795 2.29459 10.366 1.25 11.9999 1.25C13.6339 1.25 15.0219 2.29459 15.5364 3.75007C15.6744 4.1406 15.4697 4.56909 15.0792 4.70713C14.6886 4.84517 14.2601 4.64047 14.1221 4.24993C13.8129 3.37503 12.9784 2.75 11.9999 2.75Z" />
<path d="M2.74991 6C2.74991 5.58579 3.08569 5.25 3.49991 5.25H20.5C20.9142 5.25 21.25 5.58579 21.25 6C21.25 6.41421 20.9142 6.75 20.5 6.75H3.49991C3.08569 6.75 2.74991 6.41421 2.74991 6Z" />
<path d="M5.91499 8.45011C5.88744 8.03681 5.53006 7.72411 5.11677 7.75166C4.70347 7.77921 4.39076 8.13659 4.41832 8.54989L4.88176 15.5016C4.96726 16.7844 5.03632 17.8205 5.19829 18.6336C5.36669 19.4789 5.65311 20.185 6.24471 20.7384C6.8363 21.2919 7.55985 21.5307 8.4145 21.6425C9.23654 21.75 10.275 21.75 11.5606 21.75H12.4394C13.725 21.75 14.7634 21.75 15.5855 21.6425C16.4401 21.5307 17.1637 21.2919 17.7553 20.7384C18.3469 20.185 18.6333 19.4789 18.8017 18.6336C18.9637 17.8205 19.0327 16.7844 19.1182 15.5016L19.5817 8.54989C19.6092 8.13659 19.2965 7.77921 18.8832 7.75166C18.4699 7.72411 18.1125 8.03681 18.085 8.45011L17.625 15.3492C17.5352 16.6971 17.4712 17.6349 17.3306 18.3405C17.1942 19.025 17.0039 19.3873 16.7305 19.6431C16.4571 19.8988 16.0829 20.0647 15.3909 20.1552C14.6775 20.2485 13.7375 20.25 12.3867 20.25H11.6133C10.2625 20.25 9.32246 20.2485 8.60906 20.1552C7.91705 20.0647 7.5429 19.8988 7.26948 19.6431C6.99607 19.3873 6.80574 19.025 6.66939 18.3405C6.52882 17.6349 6.46479 16.6971 6.37493 15.3492L5.91499 8.45011Z" />
<path d="M9.42537 10.2537C9.83753 10.2125 10.2051 10.5132 10.2463 10.9254L10.7463 15.9254C10.7875 16.3375 10.4868 16.7051 10.0746 16.7463C9.66247 16.7875 9.29493 16.4868 9.25372 16.0746L8.75372 11.0746C8.7125 10.6625 9.01321 10.2949 9.42537 10.2537Z" />
<path d="M15.2463 11.0746C15.2875 10.6625 14.9868 10.2949 14.5746 10.2537C14.1625 10.2125 13.7949 10.5132 13.7537 10.9254L13.2537 15.9254C13.2125 16.3375 13.5132 16.7051 13.9254 16.7463C14.3375 16.7875 14.7051 16.4868 14.7463 16.0746L15.2463 11.0746Z" /></symbol>
  <symbol id="delta-down" viewBox="0 0 24 24">
<rect width="24" height="24" />
<path fill-rule="evenodd" clip-rule="evenodd" d="M12 3.25C12.4142 3.25 12.75 3.58579 12.75 4L12.75 18.1893L17.4697 13.4697C17.7626 13.1768 18.2374 13.1768 18.5303 13.4697C18.8232 13.7626 18.8232 14.2374 18.5303 14.5303L12.5303 20.5303C12.3897 20.671 12.1989 20.75 12 20.75C11.8011 20.75 11.6103 20.671 11.4697 20.5303L5.46967 14.5303C5.17678 14.2374 5.17678 13.7626 5.46967 13.4697C5.76256 13.1768 6.23744 13.1768 6.53033 13.4697L11.25 18.1893L11.25 4C11.25 3.58579 11.5858 3.25 12 3.25Z" /></symbol>
  <symbol id="delta-flat" viewBox="0 0 24 24">
<rect width="24" height="24" />
<path fill-rule="evenodd" clip-rule="evenodd" d="M13.4697 5.46967C13.7626 5.17678 14.2374 5.17678 14.5303 5.46967L20.5303 11.4697C20.8232 11.7626 20.8232 12.2374 20.5303 12.5303L14.5303 18.5303C14.2374 18.8232 13.7626 18.8232 13.4697 18.5303C13.1768 18.2374 13.1768 17.7626 13.4697 17.4697L18.1893 12.75H4C3.58579 12.75 3.25 12.4142 3.25 12C3.25 11.5858 3.58579 11.25 4 11.25H18.1893L13.4697 6.53033C13.1768 6.23744 13.1768 5.76256 13.4697 5.46967Z" /></symbol>
  <symbol id="delta-up" viewBox="0 0 24 24">
<rect width="24" height="24" />
<path fill-rule="evenodd" clip-rule="evenodd" d="M11.4697 3.46967C11.7626 3.17678 12.2374 3.17678 12.5303 3.46967L18.5303 9.46967C18.8232 9.76256 18.8232 10.2374 18.5303 10.5303C18.2374 10.8232 17.7626 10.8232 17.4697 10.5303L12.75 5.81066L12.75 20C12.75 20.4142 12.4142 20.75 12 20.75C11.5858 20.75 11.25 20.4142 11.25 20L11.25 5.81066L6.53033 10.5303C6.23744 10.8232 5.76256 10.8232 5.46967 10.5303C5.17678 10.2374 5.17678 9.76256 5.46967 9.46967L11.4697 3.46967Z" /></symbol>
  <symbol id="empty-folder" viewBox="0 0 24 24">
<rect width="24" height="24" />
<path fill-rule="evenodd" clip-rule="evenodd" d="M6.85927 1.24999C6.88902 1.25 6.91918 1.25 6.94975 1.25L6.98674 1.25C7.33817 1.24998 7.56431 1.24996 7.7854 1.27063C8.73668 1.35959 9.63903 1.73336 10.3746 2.34311C10.5455 2.48483 10.7055 2.64475 10.9539 2.89328L11.5303 3.46967C12.376 4.31538 12.7012 4.63108 13.0768 4.84003C13.2948 4.96133 13.526 5.05712 13.7659 5.12551C14.1793 5.24332 14.6324 5.25 15.8284 5.25L16.253 5.25C17.5259 5.24998 18.5521 5.24997 19.364 5.35204C20.2054 5.45783 20.9204 5.68357 21.5077 6.21183C21.6061 6.3003 21.6997 6.39392 21.7882 6.49229C22.3164 7.07964 22.5422 7.79457 22.648 8.63599C22.75 9.44788 22.75 10.4741 22.75 11.747V14.0564C22.75 15.8942 22.75 17.3498 22.5969 18.489C22.4392 19.6614 22.1071 20.6104 21.3588 21.3588C20.6104 22.1071 19.6614 22.4392 18.489 22.5969C17.3498 22.75 15.8942 22.75 14.0564 22.75H9.94359C8.10583 22.75 6.65019 22.75 5.51098 22.5969C4.33856 22.4392 3.38961 22.1071 2.64124 21.3588C1.89288 20.6104 1.56076 19.6614 1.40314 18.489C1.24997 17.3498 1.24999 15.8942 1.25 14.0564L1.25 6.94975C1.25 6.91918 1.25 6.88902 1.24999 6.85927C1.24988 6.06336 1.24981 5.55684 1.33235 5.11933C1.69489 3.19787 3.19787 1.69489 5.11933 1.33235C5.55684 1.24981 6.06336 1.24988 6.85927 1.24999ZM6.94975 2.75C6.03311 2.75 5.67871 2.75328 5.39744 2.80635C4.08275 3.0544 3.0544 4.08275 2.80635 5.39744C2.75328 5.67871 2.75 6.03311 2.75 6.94975V14C2.75 15.9068 2.75159 17.2615 2.88976 18.2892C3.02503 19.2952 3.27869 19.8749 3.7019 20.2981C4.12511 20.7213 4.70476 20.975 5.71085 21.1102C6.73851 21.2484 8.09318 21.25 10 21.25H14C15.9068 21.25 17.2615 21.2484 18.2892 21.1102C19.2952 20.975 19.8749 20.7213 20.2981 20.2981C20.7213 19.8749 20.975 19.2952 21.1102 18.2892C21.2484 17.2615 21.25 15.9068 21.25 14V11.7979C21.25 10.4621 21.2486 9.53049 21.1597 8.82311C21.0731 8.13446 20.9141 7.76355 20.6729 7.49537C20.6198 7.43636 20.5637 7.38019 20.5046 7.3271C20.2365 7.0859 19.8655 6.92691 19.1769 6.84033C18.4695 6.75139 17.5379 6.75 16.2021 6.75H15.8284C15.7912 6.75 15.7545 6.75001 15.7182 6.75002C14.6702 6.75023 13.9944 6.75037 13.3548 6.56805C13.0041 6.46809 12.6661 6.3281 12.3475 6.15082C11.7663 5.82746 11.2885 5.34948 10.5476 4.60831C10.522 4.58264 10.496 4.55664 10.4697 4.53033L9.91942 3.98008C9.63614 3.6968 9.52776 3.58949 9.41729 3.49792C8.91402 3.08072 8.29662 2.82498 7.64574 2.76412C7.50288 2.75076 7.35037 2.75 6.94975 2.75ZM12.25 10C12.25 9.58579 12.5858 9.25 13 9.25H18C18.4142 9.25 18.75 9.58579 18.75 10C18.75 10.4142 18.4142 10.75 18 10.75H13C12.5858 10.75 12.25 10.4142 12.25 10Z" /></symbol>
  <symbol id="external-link" viewBox="0 0 24 24">
<path fill-rule="evenodd" clip-rule="evenodd" d="M9 6.75C8.58579 6.75 8.25 6.41421 8.25 6C8.25 5.58579 8.58579 5.25 9 5.25H18C18.4142 5.25 18.75 5.58579 18.75 6V15C18.75 15.4142 18.4142 15.75 18 15.75C17.5858 15.75 17.25 15.4142 17.25 15V7.81066L6.53033 18.5303C6.23744 18.8232 5.76256 18.8232 5.46967 18.5303C5.17678 18.2374 5.17678 17.7626 5.46967 17.4697L16.1893 6.75H9Z" /></symbol>
  <symbol id="home" viewBox="0 0 24 24">
<path d="M9 17.25C8.58579 17.25 8.25 17.5858 8.25 18C8.25 18.4142 8.58579 18.75 9 18.75H15C15.4142 18.75 15.75 18.4142 15.75 18C15.75 17.5858 15.4142 17.25 15 17.25H9Z" />
<path fill-rule="evenodd" clip-rule="evenodd" d="M12 1.25C11.2919 1.25 10.6485 1.45282 9.95055 1.79224C9.27585 2.12035 8.49642 2.60409 7.52286 3.20832L5.45628 4.4909C4.53509 5.06261 3.79744 5.5204 3.2289 5.95581C2.64015 6.40669 2.18795 6.86589 1.86131 7.46263C1.53535 8.05812 1.38857 8.69174 1.31819 9.4407C1.24999 10.1665 1.24999 11.0541 1.25 12.1672V13.7799C1.24999 15.6837 1.24998 17.1866 1.4027 18.3616C1.55937 19.567 1.88856 20.5401 2.63236 21.3094C3.37958 22.0824 4.33046 22.4277 5.50761 22.5914C6.64849 22.75 8.10556 22.75 9.94185 22.75H14.0581C15.8944 22.75 17.3515 22.75 18.4924 22.5914C19.6695 22.4277 20.6204 22.0824 21.3676 21.3094C22.1114 20.5401 22.4406 19.567 22.5973 18.3616C22.75 17.1866 22.75 15.6838 22.75 13.7799V12.1672C22.75 11.0541 22.75 10.1665 22.6818 9.4407C22.6114 8.69174 22.4646 8.05812 22.1387 7.46263C21.8121 6.86589 21.3599 6.40669 20.7711 5.95581C20.2026 5.5204 19.4649 5.06262 18.5437 4.49091L16.4771 3.20831C15.5036 2.60409 14.7241 2.12034 14.0494 1.79224C13.3515 1.45282 12.7081 1.25 12 1.25ZM8.27953 4.50412C9.29529 3.87371 10.0095 3.43153 10.6065 3.1412C11.1882 2.85833 11.6002 2.75 12 2.75C12.3998 2.75 12.8118 2.85833 13.3935 3.14119C13.9905 3.43153 14.7047 3.87371 15.7205 4.50412L17.7205 5.74537C18.6813 6.34169 19.3559 6.76135 19.8591 7.1467C20.3487 7.52164 20.6303 7.83106 20.8229 8.18285C21.0162 8.53589 21.129 8.94865 21.1884 9.58104C21.2492 10.2286 21.25 11.0458 21.25 12.2039V13.725C21.25 15.6959 21.2485 17.1012 21.1098 18.1683C20.9736 19.2163 20.717 19.8244 20.2892 20.2669C19.8649 20.7058 19.2871 20.9664 18.2858 21.1057C17.2602 21.2483 15.9075 21.25 14 21.25H10C8.09247 21.25 6.73983 21.2483 5.71422 21.1057C4.71286 20.9664 4.13514 20.7058 3.71079 20.2669C3.28301 19.8244 3.02642 19.2163 2.89019 18.1683C2.75149 17.1012 2.75 15.6959 2.75 13.725V12.2039C2.75 11.0458 2.75076 10.2286 2.81161 9.58104C2.87103 8.94865 2.98385 8.53589 3.17709 8.18285C3.36965 7.83106 3.65133 7.52164 4.14092 7.1467C4.6441 6.76135 5.31869 6.34169 6.27953 5.74537L8.27953 4.50412Z" /></symbol>
  <symbol id="info" viewBox="0 0 24 24">
<rect width="24" height="24" />
<path d="M12 17.75C12.4142 17.75 12.75 17.4142 12.75 17V11C12.75 10.5858 12.4142 10.25 12 10.25C11.5858 10.25 11.25 10.5858 11.25 11V17C11.25 17.4142 11.5858 17.75 12 17.75Z" />
<path d="M12 7C12.5523 7 13 7.44772 13 8C13 8.55228 12.5523 9 12 9C11.4477 9 11 8.55228 11 8C11 7.44772 11.4477 7 12 7Z" />
<path fill-rule="evenodd" clip-rule="evenodd" d="M1.25 12C1.25 6.06294 6.06294 1.25 12 1.25C17.9371 1.25 22.75 6.06294 22.75 12C22.75 17.9371 17.9371 22.75 12 22.75C6.06294 22.75 1.25 17.9371 1.25 12ZM12 2.75C6.89137 2.75 2.75 6.89137 2.75 12C2.75 17.1086 6.89137 21.25 12 21.25C17.1086 21.25 21.25 17.1086 21.25 12C21.25 6.89137 17.1086 2.75 12 2.75Z" /></symbol>
  <symbol id="invite---email" viewBox="0 0 24 24">
<rect width="24" height="24" />
<path fill-rule="evenodd" clip-rule="evenodd" d="M9.94358 3.25H14.0564C15.8942 3.24998 17.3498 3.24997 18.489 3.40314C19.6614 3.56076 20.6104 3.89288 21.3588 4.64124C22.1071 5.38961 22.4392 6.33856 22.5969 7.51098C22.75 8.65019 22.75 10.1058 22.75 11.9436V12.0564C22.75 13.8942 22.75 15.3498 22.5969 16.489C22.4392 17.6614 22.1071 18.6104 21.3588 19.3588C20.6104 20.1071 19.6614 20.4392 18.489 20.5969C17.3498 20.75 15.8942 20.75 14.0564 20.75H9.94359C8.10583 20.75 6.65019 20.75 5.51098 20.5969C4.33856 20.4392 3.38961 20.1071 2.64124 19.3588C1.89288 18.6104 1.56076 17.6614 1.40314 16.489C1.24997 15.3498 1.24998 13.8942 1.25 12.0564V11.9436C1.24998 10.1058 1.24997 8.65019 1.40314 7.51098C1.56076 6.33856 1.89288 5.38961 2.64124 4.64124C3.38961 3.89288 4.33856 3.56076 5.51098 3.40314C6.65019 3.24997 8.10582 3.24998 9.94358 3.25ZM5.71085 4.88976C4.70476 5.02502 4.12511 5.27869 3.7019 5.7019C3.27869 6.12511 3.02502 6.70476 2.88976 7.71085C2.75159 8.73851 2.75 10.0932 2.75 12C2.75 13.9068 2.75159 15.2615 2.88976 16.2892C3.02502 17.2952 3.27869 17.8749 3.7019 18.2981C4.12511 18.7213 4.70476 18.975 5.71085 19.1102C6.73851 19.2484 8.09318 19.25 10 19.25H14C15.9068 19.25 17.2615 19.2484 18.2892 19.1102C19.2952 18.975 19.8749 18.7213 20.2981 18.2981C20.7213 17.8749 20.975 17.2952 21.1102 16.2892C21.2484 15.2615 21.25 13.9068 21.25 12C21.25 10.0932 21.2484 8.73851 21.1102 7.71085C20.975 6.70476 20.7213 6.12511 20.2981 5.7019C19.8749 5.27869 19.2952 5.02502 18.2892 4.88976C17.2615 4.75159 15.9068 4.75 14 4.75H10C8.09318 4.75 6.73851 4.75159 5.71085 4.88976ZM5.42383 7.51986C5.68901 7.20165 6.16193 7.15866 6.48014 7.42383L8.63903 9.22291C9.57199 10.0004 10.2197 10.5384 10.7666 10.8901C11.2959 11.2306 11.6549 11.3449 12 11.3449C12.3451 11.3449 12.7041 11.2306 13.2334 10.8901C13.7803 10.5384 14.428 10.0004 15.361 9.22291L17.5199 7.42383C17.8381 7.15866 18.311 7.20165 18.5762 7.51986C18.8413 7.83807 18.7983 8.31099 18.4801 8.57617L16.2836 10.4066C15.3973 11.1452 14.6789 11.7439 14.0448 12.1517C13.3843 12.5765 12.7411 12.8449 12 12.8449C11.2589 12.8449 10.6157 12.5765 9.95518 12.1517C9.32112 11.7439 8.60272 11.1452 7.71636 10.4066L5.51986 8.57617C5.20165 8.31099 5.15866 7.83807 5.42383 7.51986Z" /></symbol>
  <symbol id="leaf.fill" viewBox="0 0 24 24">
<path d="M5.91977 21.3061C6.06162 21.3255 6.23424 21.2834 6.43563 21.1166C8.17724 19.6736 9.68803 17.9094 10.6874 15.8661C11.7558 13.6817 12.2907 12.115 12.9863 9.15085C13.0132 9.0362 13.1694 9.05305 13.1663 9.17077C13.0386 14.0915 10.6747 18.3373 9.95983 19.5131C9.8869 19.6331 9.99539 19.7833 10.1316 19.7493C13.6229 18.8771 17.053 16.1359 17.8006 12.646C18.5502 9.1461 17.1409 5.28105 14.3392 3.06196C14.1994 2.95112 13.9942 2.9935 13.9097 3.15073C13.0724 4.70903 11.47 5.72823 9.97839 6.71333C8.39224 7.75998 7.03154 8.96167 6.21795 10.8317C5.50384 12.4736 5.24981 16.0273 7.5269 19.013C7.5269 19.013 6.97089 19.831 5.7766 20.7202C5.54486 20.8929 5.63319 21.2669 5.91977 21.3061Z" />
<defs>
<linearGradient id="paint0_linear_22_71650" x1="11.8221" y1="2.99987" x2="11.8221" y2="21.3105" gradientUnits="userSpaceOnUse">
<stop stop-color="white"/>
<stop offset="0.548077" stop-color="white"/>
<stop offset="1" stop-color="white"/>
</linearGradient>
</defs></symbol>
  <symbol id="leaf" viewBox="0 0 24 24">
<path d="M14.3164 3.09069C14.1947 2.99421 14.0161 3.0311 13.9424 3.16784C13.0999 4.73589 11.4882 5.76055 9.99902 6.74401C8.41562 7.78884 7.06147 8.98583 6.25195 10.8465C5.54245 12.4779 5.28869 16.0174 7.55664 18.9911L7.57227 19.0116L7.55762 19.034H7.55664L7.55566 19.036C7.55452 19.0377 7.55302 19.0406 7.55078 19.0438C7.54632 19.0502 7.53909 19.059 7.53027 19.0712C7.5125 19.0956 7.48586 19.132 7.4502 19.1776C7.37887 19.2689 7.27166 19.4 7.12695 19.5585C6.83733 19.8756 6.39794 20.3038 5.79883 20.7499C5.59192 20.904 5.67285 21.2349 5.9248 21.2694C6.05409 21.2871 6.21663 21.2497 6.41211 21.0878C8.15046 19.6474 9.65769 17.8872 10.6543 15.8495C11.8113 13.4839 12.342 11.8444 13.1309 8.35925L13.2031 8.36608C13.3357 13.6333 10.7457 18.2911 9.99121 19.5321C9.93488 19.6247 10.0197 19.7396 10.123 19.7137C13.6051 18.8437 17.0208 16.1105 17.7646 12.6385C18.5112 9.15247 17.1072 5.30117 14.3164 3.09069Z"   stroke-width="0.0736352"/>
<defs>
<linearGradient id="paint0_linear_22_71644" x1="11.8221" y1="2.99987" x2="11.8221" y2="21.3105" gradientUnits="userSpaceOnUse">
<stop stop-color="white" stop-opacity="0.8"/>
<stop offset="0.538462" stop-color="white"/>
<stop offset="1" stop-color="white" stop-opacity="0.8"/>
</linearGradient>
<linearGradient id="paint1_linear_22_71644" x1="11.8221" y1="2.99987" x2="11.8221" y2="21.3105" gradientUnits="userSpaceOnUse">
<stop stop-color="white" stop-opacity="0.9"/>
<stop offset="0.548077" stop-color="white" stop-opacity="0"/>
<stop offset="1" stop-color="white" stop-opacity="0.9"/>
</linearGradient>
</defs></symbol>
  <symbol id="overflow-(filled)" viewBox="0 0 24 24">
<path d="M7 12C7 13.1046 6.10457 14 5 14C3.89543 14 3 13.1046 3 12C3 10.8954 3.89543 10 5 10C6.10457 10 7 10.8954 7 12Z" />
<path d="M14 12C14 13.1046 13.1046 14 12 14C10.8954 14 10 13.1046 10 12C10 10.8954 10.8954 10 12 10C13.1046 10 14 10.8954 14 12Z" />
<path d="M21 12C21 13.1046 20.1046 14 19 14C17.8954 14 17 13.1046 17 12C17 10.8954 17.8954 10 19 10C20.1046 10 21 10.8954 21 12Z" /></symbol>
  <symbol id="overflow" viewBox="0 0 24 24">
<path d="M9 12C9 12.5523 8.55228 13 8 13C7.44772 13 7 12.5523 7 12C7 11.4477 7.44772 11 8 11C8.55228 11 9 11.4477 9 12Z" />
<path d="M13 12C13 12.5523 12.5523 13 12 13C11.4477 13 11 12.5523 11 12C11 11.4477 11.4477 11 12 11C12.5523 11 13 11.4477 13 12Z" />
<path d="M16 13C16.5523 13 17 12.5523 17 12C17 11.4477 16.5523 11 16 11C15.4477 11 15 11.4477 15 12C15 12.5523 15.4477 13 16 13Z" />
<path fill-rule="evenodd" clip-rule="evenodd" d="M12 1.25C6.06294 1.25 1.25 6.06294 1.25 12C1.25 17.9371 6.06294 22.75 12 22.75C17.9371 22.75 22.75 17.9371 22.75 12C22.75 6.06294 17.9371 1.25 12 1.25ZM2.75 12C2.75 6.89137 6.89137 2.75 12 2.75C17.1086 2.75 21.25 6.89137 21.25 12C21.25 17.1086 17.1086 21.25 12 21.25C6.89137 21.25 2.75 17.1086 2.75 12Z" /></symbol>
  <symbol id="profile" viewBox="0 0 24 24">
<path fill-rule="evenodd" clip-rule="evenodd" d="M8.25 9C8.25 6.92893 9.92893 5.25 12 5.25C14.0711 5.25 15.75 6.92893 15.75 9C15.75 11.0711 14.0711 12.75 12 12.75C9.92893 12.75 8.25 11.0711 8.25 9ZM12 6.75C10.7574 6.75 9.75 7.75736 9.75 9C9.75 10.2426 10.7574 11.25 12 11.25C13.2426 11.25 14.25 10.2426 14.25 9C14.25 7.75736 13.2426 6.75 12 6.75Z" />
<path fill-rule="evenodd" clip-rule="evenodd" d="M1.25 12C1.25 6.06294 6.06294 1.25 12 1.25C17.9371 1.25 22.75 6.06294 22.75 12C22.75 17.9371 17.9371 22.75 12 22.75C6.06294 22.75 1.25 17.9371 1.25 12ZM12 2.75C6.89137 2.75 2.75 6.89137 2.75 12C2.75 14.5456 3.77827 16.851 5.4421 18.5235C5.6225 17.5504 5.97694 16.6329 6.68837 15.8951C7.75252 14.7915 9.45416 14.25 12 14.25C14.5457 14.25 16.2474 14.7915 17.3115 15.8951C18.023 16.6329 18.3774 17.5505 18.5578 18.5236C20.2217 16.8511 21.25 14.5456 21.25 12C21.25 6.89137 17.1086 2.75 12 2.75ZM17.1937 19.6554C17.0918 18.4435 16.8286 17.5553 16.2318 16.9363C15.5823 16.2628 14.3789 15.75 12 15.75C9.62099 15.75 8.41761 16.2628 7.76815 16.9363C7.17127 17.5553 6.90811 18.4434 6.80622 19.6553C8.28684 20.6618 10.0747 21.25 12 21.25C13.9252 21.25 15.7131 20.6618 17.1937 19.6554Z" /></symbol>
  <symbol id="settings" viewBox="0 0 24 24">
<path fill-rule="evenodd" clip-rule="evenodd" d="M12 8.25C9.92894 8.25 8.25 9.92893 8.25 12C8.25 14.0711 9.92894 15.75 12 15.75C14.0711 15.75 15.75 14.0711 15.75 12C15.75 9.92893 14.0711 8.25 12 8.25ZM9.75 12C9.75 10.7574 10.7574 9.75 12 9.75C13.2426 9.75 14.25 10.7574 14.25 12C14.25 13.2426 13.2426 14.25 12 14.25C10.7574 14.25 9.75 13.2426 9.75 12Z" />
<path fill-rule="evenodd" clip-rule="evenodd" d="M11.9747 1.25C11.5303 1.24999 11.1592 1.24999 10.8546 1.27077C10.5375 1.29241 10.238 1.33905 9.94761 1.45933C9.27379 1.73844 8.73843 2.27379 8.45932 2.94762C8.31402 3.29842 8.27467 3.66812 8.25964 4.06996C8.24756 4.39299 8.08454 4.66251 7.84395 4.80141C7.60337 4.94031 7.28845 4.94673 7.00266 4.79568C6.64714 4.60777 6.30729 4.45699 5.93083 4.40743C5.20773 4.31223 4.47642 4.50819 3.89779 4.95219C3.64843 5.14353 3.45827 5.3796 3.28099 5.6434C3.11068 5.89681 2.92517 6.21815 2.70294 6.60307L2.67769 6.64681C2.45545 7.03172 2.26993 7.35304 2.13562 7.62723C1.99581 7.91267 1.88644 8.19539 1.84541 8.50701C1.75021 9.23012 1.94617 9.96142 2.39016 10.5401C2.62128 10.8412 2.92173 11.0602 3.26217 11.2741C3.53595 11.4461 3.68788 11.7221 3.68786 12C3.68785 12.2778 3.53592 12.5538 3.26217 12.7258C2.92169 12.9397 2.62121 13.1587 2.39007 13.4599C1.94607 14.0385 1.75012 14.7698 1.84531 15.4929C1.88634 15.8045 1.99571 16.0873 2.13552 16.3727C2.26983 16.6469 2.45535 16.9682 2.67758 17.3531L2.70284 17.3969C2.92507 17.7818 3.11058 18.1031 3.28089 18.3565C3.45817 18.6203 3.64833 18.8564 3.89769 19.0477C4.47632 19.4917 5.20763 19.6877 5.93073 19.5925C6.30717 19.5429 6.647 19.3922 7.0025 19.2043C7.28833 19.0532 7.60329 19.0596 7.8439 19.1986C8.08452 19.3375 8.24756 19.607 8.25964 19.9301C8.27467 20.3319 8.31403 20.7016 8.45932 21.0524C8.73843 21.7262 9.27379 22.2616 9.94761 22.5407C10.238 22.661 10.5375 22.7076 10.8546 22.7292C11.1592 22.75 11.5303 22.75 11.9747 22.75H12.0252C12.4697 22.75 12.8407 22.75 13.1454 22.7292C13.4625 22.7076 13.762 22.661 14.0524 22.5407C14.7262 22.2616 15.2616 21.7262 15.5407 21.0524C15.686 20.7016 15.7253 20.3319 15.7403 19.93C15.7524 19.607 15.9154 19.3375 16.156 19.1985C16.3966 19.0596 16.7116 19.0532 16.9974 19.2042C17.3529 19.3921 17.6927 19.5429 18.0692 19.5924C18.7923 19.6876 19.5236 19.4917 20.1022 19.0477C20.3516 18.8563 20.5417 18.6203 20.719 18.3565C20.8893 18.1031 21.0748 17.7818 21.297 17.3969L21.3223 17.3531C21.5445 16.9682 21.7301 16.6468 21.8644 16.3726C22.0042 16.0872 22.1135 15.8045 22.1546 15.4929C22.2498 14.7697 22.0538 14.0384 21.6098 13.4598C21.3787 13.1586 21.0782 12.9397 20.7378 12.7258C20.464 12.5538 20.3121 12.2778 20.3121 11.9999C20.3121 11.7221 20.464 11.4462 20.7377 11.2742C21.0783 11.0603 21.3788 10.8414 21.6099 10.5401C22.0539 9.96149 22.2499 9.23019 22.1547 8.50708C22.1136 8.19546 22.0043 7.91274 21.8645 7.6273C21.7302 7.35313 21.5447 7.03183 21.3224 6.64695L21.2972 6.60318C21.0749 6.21825 20.8894 5.89688 20.7191 5.64347C20.5418 5.37967 20.3517 5.1436 20.1023 4.95225C19.5237 4.50826 18.7924 4.3123 18.0692 4.4075C17.6928 4.45706 17.353 4.60782 16.9975 4.79572C16.7117 4.94679 16.3967 4.94036 16.1561 4.80144C15.9155 4.66253 15.7524 4.39297 15.7403 4.06991C15.7253 3.66808 15.686 3.2984 15.5407 2.94762C15.2616 2.27379 14.7262 1.73844 14.0524 1.45933C13.762 1.33905 13.4625 1.29241 13.1454 1.27077C12.8407 1.24999 12.4697 1.24999 12.0252 1.25H11.9747ZM10.5216 2.84515C10.5988 2.81319 10.716 2.78372 10.9567 2.76729C11.2042 2.75041 11.5238 2.75 12 2.75C12.4762 2.75 12.7958 2.75041 13.0432 2.76729C13.284 2.78372 13.4012 2.81319 13.4783 2.84515C13.7846 2.97202 14.028 3.21536 14.1548 3.52165C14.1949 3.61826 14.228 3.76887 14.2414 4.12597C14.271 4.91835 14.68 5.68129 15.4061 6.10048C16.1321 6.51968 16.9974 6.4924 17.6984 6.12188C18.0143 5.9549 18.1614 5.90832 18.265 5.89467C18.5937 5.8514 18.9261 5.94047 19.1891 6.14228C19.2554 6.19312 19.3395 6.27989 19.4741 6.48016C19.6125 6.68603 19.7726 6.9626 20.0107 7.375C20.2488 7.78741 20.4083 8.06438 20.5174 8.28713C20.6235 8.50382 20.6566 8.62007 20.6675 8.70287C20.7108 9.03155 20.6217 9.36397 20.4199 9.62698C20.3562 9.70995 20.2424 9.81399 19.9397 10.0041C19.2684 10.426 18.8122 11.1616 18.8121 11.9999C18.8121 12.8383 19.2683 13.574 19.9397 13.9959C20.2423 14.186 20.3561 14.29 20.4198 14.373C20.6216 14.636 20.7107 14.9684 20.6674 15.2971C20.6565 15.3799 20.6234 15.4961 20.5173 15.7128C20.4082 15.9355 20.2487 16.2125 20.0106 16.6249C19.7725 17.0373 19.6124 17.3139 19.474 17.5198C19.3394 17.72 19.2553 17.8068 19.189 17.8576C18.926 18.0595 18.5936 18.1485 18.2649 18.1053C18.1613 18.0916 18.0142 18.045 17.6983 17.8781C16.9973 17.5075 16.132 17.4803 15.4059 17.8995C14.68 18.3187 14.271 19.0816 14.2414 19.874C14.228 20.2311 14.1949 20.3817 14.1548 20.4784C14.028 20.7846 13.7846 21.028 13.4783 21.1549C13.4012 21.1868 13.284 21.2163 13.0432 21.2327C12.7958 21.2496 12.4762 21.25 12 21.25C11.5238 21.25 11.2042 21.2496 10.9567 21.2327C10.716 21.2163 10.5988 21.1868 10.5216 21.1549C10.2154 21.028 9.97201 20.7846 9.84514 20.4784C9.80512 20.3817 9.77195 20.2311 9.75859 19.874C9.72896 19.0817 9.31997 18.3187 8.5939 17.8995C7.86784 17.4803 7.00262 17.5076 6.30158 17.8781C5.98565 18.0451 5.83863 18.0917 5.73495 18.1053C5.40626 18.1486 5.07385 18.0595 4.81084 17.8577C4.74458 17.8069 4.66045 17.7201 4.52586 17.5198C4.38751 17.314 4.22736 17.0374 3.98926 16.625C3.75115 16.2126 3.59171 15.9356 3.4826 15.7129C3.37646 15.4962 3.34338 15.3799 3.33248 15.2971C3.28921 14.9684 3.37828 14.636 3.5801 14.373C3.64376 14.2901 3.75761 14.186 4.0602 13.9959C4.73158 13.5741 5.18782 12.8384 5.18786 12.0001C5.18791 11.1616 4.73165 10.4259 4.06021 10.004C3.75769 9.81389 3.64385 9.70987 3.58019 9.62691C3.37838 9.3639 3.28931 9.03149 3.33258 8.7028C3.34348 8.62001 3.37656 8.50375 3.4827 8.28707C3.59181 8.06431 3.75125 7.78734 3.98935 7.37493C4.22746 6.96253 4.3876 6.68596 4.52596 6.48009C4.66055 6.27983 4.74468 6.19305 4.81093 6.14222C5.07395 5.9404 5.40636 5.85133 5.73504 5.8946C5.83873 5.90825 5.98576 5.95483 6.30173 6.12184C7.00273 6.49235 7.86791 6.51962 8.59394 6.10045C9.31998 5.68128 9.72896 4.91837 9.75859 4.12602C9.77195 3.76889 9.80512 3.61827 9.84514 3.52165C9.97201 3.21536 10.2154 2.97202 10.5216 2.84515Z" /></symbol>
  <symbol id="share" viewBox="0 0 24 24">
<rect width="24" height="24" rx="5" />
<path d="M14.4697 7.53033C14.7626 7.82322 15.2374 7.82322 15.5303 7.53033C15.8232 7.23744 15.8232 6.76256 15.5303 6.46967L12.5303 3.46967C12.2374 3.17678 11.7626 3.17678 11.4697 3.46967L8.46967 6.46967C8.17678 6.76256 8.17678 7.23744 8.46967 7.53033C8.76256 7.82322 9.23744 7.82322 9.53033 7.53033L11.25 5.81066V14C11.25 14.4142 11.5858 14.75 12 14.75C12.4142 14.75 12.75 14.4142 12.75 14V5.81066L14.4697 7.53033Z" />
<path d="M20.75 12C20.75 11.5858 20.4142 11.25 20 11.25C19.5858 11.25 19.25 11.5858 19.25 12C19.25 16.0041 16.0041 19.25 12 19.25C7.99593 19.25 4.75 16.0041 4.75 12C4.75 11.5858 4.41421 11.25 4 11.25C3.58579 11.25 3.25 11.5858 3.25 12C3.25 16.8325 7.16751 20.75 12 20.75C16.8325 20.75 20.75 16.8325 20.75 12Z" /></symbol>
  <symbol id="sidebar" viewBox="0 0 24 24">
<rect width="24" height="24" rx="5" />
<path d="M5.5 9.25C5.08579 9.25 4.75 9.58579 4.75 10C4.75 10.4142 5.08579 10.75 5.5 10.75H11.5C11.9142 10.75 12.25 10.4142 12.25 10C12.25 9.58579 11.9142 9.25 11.5 9.25H5.5Z" />
<path d="M5.75 14C5.75 13.5858 6.08579 13.25 6.5 13.25H10.5C10.9142 13.25 11.25 13.5858 11.25 14C11.25 14.4142 10.9142 14.75 10.5 14.75H6.5C6.08579 14.75 5.75 14.4142 5.75 14Z" />
<path fill-rule="evenodd" clip-rule="evenodd" d="M9.94358 2.25C8.10583 2.24998 6.65019 2.24997 5.51098 2.40313C4.33856 2.56076 3.38961 2.89288 2.64124 3.64124C1.89288 4.38961 1.56076 5.33855 1.40314 6.51098C1.24997 7.65019 1.24998 9.10581 1.25 10.9436V13.0564C1.24998 14.8942 1.24997 16.3498 1.40314 17.489C1.56076 18.6614 1.89288 19.6104 2.64124 20.3588C3.38961 21.1071 4.33856 21.4392 5.51098 21.5969C6.65018 21.75 8.1058 21.75 9.94354 21.75H14.0564C14.3706 21.75 14.6738 21.75 14.966 21.7492C14.9773 21.7497 14.9886 21.75 15 21.75C15.0129 21.75 15.0257 21.7497 15.0384 21.749C16.4224 21.7448 17.5607 21.7217 18.489 21.5969C19.6614 21.4392 20.6104 21.1071 21.3588 20.3588C22.1071 19.6104 22.4392 18.6614 22.5969 17.489C22.75 16.3498 22.75 14.8942 22.75 13.0565V10.9436C22.75 9.10585 22.75 7.65018 22.5969 6.51098C22.4392 5.33855 22.1071 4.38961 21.3588 3.64124C20.6104 2.89288 19.6614 2.56076 18.489 2.40313C17.5607 2.27833 16.4224 2.25523 15.0384 2.25096C15.0257 2.25032 15.0129 2.25 15 2.25C14.9886 2.25 14.9773 2.25025 14.966 2.25076C14.6737 2.24999 14.3707 2.25 14.0564 2.25H9.94358ZM14.25 3.75002C14.1677 3.75 14.0844 3.75 14 3.75H10C8.09318 3.75 6.73851 3.75159 5.71085 3.88976C4.70476 4.02502 4.12511 4.27869 3.7019 4.7019C3.27869 5.12511 3.02503 5.70476 2.88976 6.71085C2.75159 7.73851 2.75 9.09318 2.75 11V13C2.75 14.9068 2.75159 16.2615 2.88976 17.2892C3.02503 18.2952 3.27869 18.8749 3.7019 19.2981C4.12511 19.7213 4.70476 19.975 5.71085 20.1102C6.73851 20.2484 8.09318 20.25 10 20.25H14C14.0844 20.25 14.1677 20.25 14.25 20.25L14.25 3.75002ZM15.75 20.2443C16.7836 20.2334 17.6082 20.2018 18.2892 20.1102C19.2952 19.975 19.8749 19.7213 20.2981 19.2981C20.7213 18.8749 20.975 18.2952 21.1102 17.2892C21.2484 16.2615 21.25 14.9068 21.25 13V11C21.25 9.09318 21.2484 7.73851 21.1102 6.71085C20.975 5.70476 20.7213 5.12511 20.2981 4.7019C19.8749 4.27869 19.2952 4.02502 18.2892 3.88976C17.6082 3.7982 16.7836 3.76662 15.75 3.75573L15.75 20.2443Z" /></symbol>
  <symbol id="success-(filled)" viewBox="0 0 24 24">
<rect width="24" height="24" />
<path fill-rule="evenodd" clip-rule="evenodd" d="M22 12C22 17.5228 17.5228 22 12 22C6.47715 22 2 17.5228 2 12C2 6.47715 6.47715 2 12 2C17.5228 2 22 6.47715 22 12ZM16.0303 8.96967C16.3232 9.26256 16.3232 9.73744 16.0303 10.0303L11.0303 15.0303C10.7374 15.3232 10.2626 15.3232 9.96967 15.0303L7.96967 13.0303C7.67678 12.7374 7.67678 12.2626 7.96967 11.9697C8.26256 11.6768 8.73744 11.6768 9.03033 11.9697L10.5 13.4393L12.7348 11.2045L14.9697 8.96967C15.2626 8.67678 15.7374 8.67678 16.0303 8.96967Z" /></symbol>
  <symbol id="success" viewBox="0 0 24 24">
<rect width="24" height="24" />
<path d="M16.0303 10.0303C16.3232 9.73744 16.3232 9.26256 16.0303 8.96967C15.7374 8.67678 15.2626 8.67678 14.9697 8.96967L10.5 13.4393L9.03033 11.9697C8.73744 11.6768 8.26256 11.6768 7.96967 11.9697C7.67678 12.2626 7.67678 12.7374 7.96967 13.0303L9.96967 15.0303C10.2626 15.3232 10.7374 15.3232 11.0303 15.0303L16.0303 10.0303Z" />
<path fill-rule="evenodd" clip-rule="evenodd" d="M12 1.25C6.06294 1.25 1.25 6.06294 1.25 12C1.25 17.9371 6.06294 22.75 12 22.75C17.9371 22.75 22.75 17.9371 22.75 12C22.75 6.06294 17.9371 1.25 12 1.25ZM2.75 12C2.75 6.89137 6.89137 2.75 12 2.75C17.1086 2.75 21.25 6.89137 21.25 12C21.25 17.1086 17.1086 21.25 12 21.25C6.89137 21.25 2.75 17.1086 2.75 12Z" /></symbol>
  <symbol id="team" viewBox="0 0 24 24">
<path fill-rule="evenodd" clip-rule="evenodd" d="M12 1.25C9.37665 1.25 7.25 3.37665 7.25 6C7.25 8.62335 9.37665 10.75 12 10.75C14.6234 10.75 16.75 8.62335 16.75 6C16.75 3.37665 14.6234 1.25 12 1.25ZM8.75 6C8.75 4.20507 10.2051 2.75 12 2.75C13.7949 2.75 15.25 4.20507 15.25 6C15.25 7.79493 13.7949 9.25 12 9.25C10.2051 9.25 8.75 7.79493 8.75 6Z" />
<path d="M18 3.25C17.5858 3.25 17.25 3.58579 17.25 4C17.25 4.41421 17.5858 4.75 18 4.75C19.3765 4.75 20.25 5.65573 20.25 6.5C20.25 7.34427 19.3765 8.25 18 8.25C17.5858 8.25 17.25 8.58579 17.25 9C17.25 9.41421 17.5858 9.75 18 9.75C19.9372 9.75 21.75 8.41715 21.75 6.5C21.75 4.58285 19.9372 3.25 18 3.25Z" />
<path d="M6.75 4C6.75 3.58579 6.41421 3.25 6 3.25C4.06278 3.25 2.25 4.58285 2.25 6.5C2.25 8.41715 4.06278 9.75 6 9.75C6.41421 9.75 6.75 9.41421 6.75 9C6.75 8.58579 6.41421 8.25 6 8.25C4.62351 8.25 3.75 7.34427 3.75 6.5C3.75 5.65573 4.62351 4.75 6 4.75C6.41421 4.75 6.75 4.41421 6.75 4Z" />
<path fill-rule="evenodd" clip-rule="evenodd" d="M12 12.25C10.2157 12.25 8.56645 12.7308 7.34133 13.5475C6.12146 14.3608 5.25 15.5666 5.25 17C5.25 18.4334 6.12146 19.6392 7.34133 20.4525C8.56645 21.2692 10.2157 21.75 12 21.75C13.7843 21.75 15.4335 21.2692 16.6587 20.4525C17.8785 19.6392 18.75 18.4334 18.75 17C18.75 15.5666 17.8785 14.3608 16.6587 13.5475C15.4335 12.7308 13.7843 12.25 12 12.25ZM6.75 17C6.75 16.2242 7.22169 15.4301 8.17338 14.7956C9.11984 14.1646 10.4706 13.75 12 13.75C13.5294 13.75 14.8802 14.1646 15.8266 14.7956C16.7783 15.4301 17.25 16.2242 17.25 17C17.25 17.7758 16.7783 18.5699 15.8266 19.2044C14.8802 19.8354 13.5294 20.25 12 20.25C10.4706 20.25 9.11984 19.8354 8.17338 19.2044C7.22169 18.5699 6.75 17.7758 6.75 17Z" />
<path d="M19.2674 13.8393C19.3561 13.4347 19.7561 13.1787 20.1607 13.2674C21.1225 13.4783 21.9893 13.8593 22.6328 14.3859C23.2758 14.912 23.75 15.6352 23.75 16.5C23.75 17.3648 23.2758 18.088 22.6328 18.6141C21.9893 19.1407 21.1225 19.5217 20.1607 19.7326C19.7561 19.8213 19.3561 19.5653 19.2674 19.1607C19.1787 18.7561 19.4347 18.3561 19.8393 18.2674C20.6317 18.0936 21.2649 17.7952 21.6829 17.4532C22.1014 17.1108 22.25 16.7763 22.25 16.5C22.25 16.2237 22.1014 15.8892 21.6829 15.5468C21.2649 15.2048 20.6317 14.9064 19.8393 14.7326C19.4347 14.6439 19.1787 14.2439 19.2674 13.8393Z" />
<path d="M3.83935 13.2674C4.24395 13.1787 4.64387 13.4347 4.73259 13.8393C4.82132 14.2439 4.56525 14.6439 4.16065 14.7326C3.36829 14.9064 2.73505 15.2048 2.31712 15.5468C1.89863 15.8892 1.75 16.2237 1.75 16.5C1.75 16.7763 1.89863 17.1108 2.31712 17.4532C2.73505 17.7952 3.36829 18.0936 4.16065 18.2674C4.56525 18.3561 4.82132 18.7561 4.73259 19.1607C4.64387 19.5653 4.24395 19.8213 3.83935 19.7326C2.87746 19.5217 2.0107 19.1407 1.36719 18.6141C0.724248 18.088 0.25 17.3648 0.25 16.5C0.25 15.6352 0.724248 14.912 1.36719 14.3859C2.0107 13.8593 2.87746 13.4783 3.83935 13.2674Z" /></symbol>
  <symbol id="user-error" viewBox="0 0 24 24">
<rect width="24" height="24" />
<path fill-rule="evenodd" clip-rule="evenodd" d="M12 1.25C9.37664 1.25 7.25 3.37665 7.25 6C7.25 8.62335 9.37664 10.75 12 10.75C14.6233 10.75 16.75 8.62335 16.75 6C16.75 3.37665 14.6233 1.25 12 1.25ZM8.75 6C8.75 4.20507 10.2051 2.75 12 2.75C13.7949 2.75 15.25 4.20507 15.25 6C15.25 7.79493 13.7949 9.25 12 9.25C10.2051 9.25 8.75 7.79493 8.75 6Z" />
<path d="M5.75 17C5.75 16.2807 6.267 15.483 7.42235 14.8228C8.55649 14.1747 10.1733 13.75 12 13.75C13.2006 13.75 14.3161 13.9337 15.2646 14.2472C15.6579 14.3772 16.0821 14.1638 16.2121 13.7705C16.3421 13.3772 16.1287 12.953 15.7354 12.823C14.6247 12.4559 13.3494 12.25 12 12.25C9.96066 12.25 8.07751 12.7208 6.67814 13.5204C5.29999 14.3079 4.25 15.5101 4.25 17L4.24992 17.0992C4.24867 18.125 4.24706 19.4551 5.39693 20.4063C5.96392 20.8754 6.75159 21.2043 7.80206 21.4203C8.85548 21.6369 10.2238 21.75 12 21.75C12.357 21.75 12.697 21.7454 13.0209 21.7364C13.4349 21.7249 13.7612 21.3799 13.7497 20.9658C13.7382 20.5518 13.3932 20.2255 12.9791 20.237C12.6703 20.2456 12.3442 20.25 12 20.25C10.2762 20.25 9.01951 20.1392 8.10418 19.951C7.1859 19.7622 6.66107 19.5053 6.35306 19.2505C5.79037 18.785 5.75 18.1711 5.75 17Z" />
<path fill-rule="evenodd" clip-rule="evenodd" d="M18 15.25C15.9289 15.25 14.25 16.9289 14.25 19C14.25 21.0711 15.9289 22.75 18 22.75C20.0711 22.75 21.75 21.0711 21.75 19C21.75 16.9289 20.0711 15.25 18 15.25ZM18.9701 16.9693L15.9693 19.97C15.8287 19.6763 15.75 19.3473 15.75 19C15.75 17.7574 16.7574 16.75 18 16.75C18.3474 16.75 18.6763 16.8287 18.9701 16.9693ZM17.0299 21.0307C17.3236 21.1713 17.6526 21.25 18 21.25C19.2426 21.25 20.25 20.2426 20.25 19C20.25 18.6526 20.1713 18.3237 20.0307 18.0299L17.0299 21.0307Z" /></symbol>
  <symbol id="warning-(filled)" viewBox="0 0 24 24">
<rect width="24" height="24" />
<path fill-rule="evenodd" clip-rule="evenodd" d="M5.31171 10.7615C8.23007 5.58716 9.68925 3 12 3C14.3107 3 15.7699 5.58716 18.6883 10.7615L19.0519 11.4063C21.4771 15.7061 22.6897 17.856 21.5937 19.428C20.4978 21 17.7864 21 12.3637 21H11.6363C6.21356 21 3.50217 21 2.40626 19.428C1.31034 17.856 2.52291 15.7061 4.94805 11.4063L5.31171 10.7615ZM12 7.25C12.4142 7.25 12.75 7.58579 12.75 8V13C12.75 13.4142 12.4142 13.75 12 13.75C11.5858 13.75 11.25 13.4142 11.25 13V8C11.25 7.58579 11.5858 7.25 12 7.25ZM12 17C12.5523 17 13 16.5523 13 16C13 15.4477 12.5523 15 12 15C11.4477 15 11 15.4477 11 16C11 16.5523 11.4477 17 12 17Z" /></symbol>
  <symbol id="warning" viewBox="0 0 24 24">
<rect width="24" height="24" />
<path d="M12 7.25C12.4142 7.25 12.75 7.58579 12.75 8V13C12.75 13.4142 12.4142 13.75 12 13.75C11.5858 13.75 11.25 13.4142 11.25 13V8C11.25 7.58579 11.5858 7.25 12 7.25Z" />
<path d="M12 17C12.5523 17 13 16.5523 13 16C13 15.4477 12.5523 15 12 15C11.4477 15 11 15.4477 11 16C11 16.5523 11.4477 17 12 17Z" />
<path fill-rule="evenodd" clip-rule="evenodd" d="M8.29442 4.47643C9.36633 3.11493 10.5018 2.25 12 2.25C13.4982 2.25 14.6337 3.11493 15.7056 4.47643C16.7598 5.81544 17.8769 7.79622 19.3063 10.3305L19.7418 11.1027C20.9234 13.1976 21.8566 14.8523 22.3468 16.1804C22.8478 17.5376 22.9668 18.7699 22.209 19.8569C21.4736 20.9118 20.2467 21.3434 18.6992 21.5471C17.1576 21.75 15.0845 21.75 12.4248 21.75H11.5752C8.91554 21.75 6.8424 21.75 5.30083 21.5471C3.75332 21.3434 2.52638 20.9118 1.791 19.8569C1.03319 18.7699 1.1522 17.5376 1.65315 16.1804C2.14335 14.8523 3.0766 13.1977 4.2582 11.1027L4.69363 10.3307C6.12301 7.79629 7.2402 5.81547 8.29442 4.47643ZM9.47299 5.40432C8.49897 6.64148 7.43706 8.51988 5.96496 11.1299L5.60131 11.7747C4.37508 13.9488 3.50369 15.4986 3.06035 16.6998C2.62272 17.8855 2.68339 18.5141 3.0215 18.9991C3.38204 19.5163 4.05874 19.8706 5.4966 20.0599C6.9286 20.2484 8.90262 20.25 11.6363 20.25H12.3637C15.0974 20.25 17.0714 20.2484 18.5034 20.0599C19.9412 19.8706 20.618 19.5163 20.9785 18.9991C21.3166 18.5141 21.3773 17.8855 20.9396 16.6998C20.4963 15.4986 19.6249 13.9488 18.3987 11.7747L18.035 11.1299C16.5629 8.51987 15.501 6.64148 14.527 5.40431C13.562 4.17865 12.8126 3.75 12 3.75C11.1874 3.75 10.438 4.17865 9.47299 5.40432Z" /></symbol>
</svg>
